<?xml version="1.0" standalone="no"?>
<!DOCTYPE svg PUBLIC "-//W3C//DTD SVG 20010904//EN"
 "http://www.w3.org/TR/2001/REC-SVG-20010904/DTD/svg10.dtd">
<svg version="1.0" xmlns="http://www.w3.org/2000/svg"
 width="1000.000000pt" height="1000.000000pt" viewBox="0 0 1000.000000 1000.000000"
 preserveAspectRatio="xMidYMid meet">

<g transform="translate(0.000000,1000.000000) scale(0.100000,-0.100000)"
fill="#000000" stroke="none">
<path d="M4710 9879 c-410 -21 -850 -110 -1290 -262 -737 -253 -1335 -623
-1865 -1152 -450 -449 -739 -869 -1013 -1475 -71 -157 -191 -484 -236 -640
-33 -114 -100 -409 -125 -545 -90 -493 -90 -1117 0 -1610 23 -128 91 -428 120
-530 24 -83 130 -390 169 -490 177 -446 496 -981 793 -1330 584 -686 1314
-1178 2179 -1469 333 -112 671 -192 983 -231 303 -38 847 -38 1150 0 595 75
1253 289 1788 581 418 228 748 475 1087 814 268 268 403 432 614 750 173 260
353 602 465 885 39 97 146 405 170 490 55 191 129 554 156 760 52 401 37 982
-36 1380 -54 291 -122 555 -200 771 -27 76 -59 166 -70 198 -45 131 -187 431
-306 646 -375 675 -946 1277 -1605 1693 -343 215 -664 369 -1058 504 -629 217
-1200 297 -1870 262z m-1325 -1354 c44 -8 107 -20 140 -26 89 -17 316 -86 430
-131 220 -88 434 -216 576 -345 139 -126 166 -171 157 -264 -7 -70 -36 -99
-99 -99 -49 0 -71 9 -284 110 -302 143 -551 235 -772 286 -101 23 -141 26
-278 26 -147 0 -167 -2 -240 -27 -121 -40 -182 -82 -266 -182 -118 -139 -179
-364 -179 -658 0 -136 1 -147 18 -140 83 32 213 70 274 80 18 3 56 10 83 15
28 6 75 12 105 15 30 2 98 9 150 15 259 27 517 2 792 -76 65 -19 119 -34 122
-34 2 0 17 24 34 53 33 59 130 160 175 184 53 27 136 28 194 3 86 -37 202
-176 244 -294 17 -48 18 -108 19 -984 0 -641 4 -949 11 -985 15 -69 32 -100
86 -158 83 -89 170 -119 343 -119 185 0 264 31 373 143 40 40 72 66 77 61 5
-5 105 -153 223 -329 l214 -320 215 -3 215 -2 79 82 c44 46 152 158 241 249
90 91 163 170 163 176 0 6 -28 16 -62 22 -226 45 -441 166 -598 338 -79 86
-61 107 46 54 77 -37 249 -96 344 -116 42 -10 137 -18 216 -20 117 -3 155 0
220 16 244 62 427 226 568 507 33 67 82 205 92 258 3 16 9 47 14 69 5 22 10
78 10 123 0 85 19 172 45 205 17 23 85 33 114 18 11 -7 30 -29 41 -51 19 -37
20 -59 20 -322 0 -156 -5 -301 -10 -323 -5 -22 -11 -51 -13 -65 -19 -107 -87
-268 -160 -382 -99 -156 -271 -272 -462 -313 -44 -10 -85 -19 -91 -20 -6 -2
-45 -45 -87 -97 -42 -51 -138 -165 -212 -253 -75 -88 -173 -204 -218 -258 -45
-54 -104 -125 -132 -157 -27 -32 -74 -88 -104 -124 l-55 -66 -440 0 -441 0
-222 222 -223 223 -223 -223 -222 -222 -434 0 -433 0 43 -36 c86 -72 254 -170
399 -232 72 -31 259 -90 340 -108 337 -71 788 -74 1119 -8 112 22 177 47 350
133 175 86 232 104 336 104 89 0 129 -17 133 -58 4 -42 -36 -87 -161 -183
-191 -147 -375 -256 -594 -353 -108 -48 -310 -118 -342 -120 -9 0 -32 -5 -51
-12 l-35 -12 0 -437 c0 -504 -14 -453 114 -418 247 69 540 277 885 629 215
219 347 374 533 626 113 152 329 496 428 679 97 179 174 267 229 261 38 -5 44
-11 50 -63 12 -94 -8 -187 -74 -342 -108 -254 -259 -553 -378 -748 -31 -51
-62 -101 -67 -110 -166 -274 -441 -617 -702 -873 -218 -214 -345 -319 -524
-431 -125 -79 -205 -118 -296 -148 -64 -21 -134 -53 -280 -130 -56 -29 -69
-32 -152 -32 -96 0 -125 10 -235 80 -48 30 -114 54 -311 108 -95 26 -345 143
-385 179 -9 8 -20 15 -24 15 -4 0 -33 18 -64 40 -31 22 -65 46 -76 53 -10 6
-62 45 -115 86 -507 393 -1061 1055 -1475 1765 -96 165 -276 519 -338 666 -94
225 -194 527 -222 674 -1 6 -8 36 -14 66 -42 200 -42 203 -42 1073 0 864 0
871 41 1132 10 61 31 155 58 260 13 47 76 205 106 266 75 149 229 330 355 416
114 78 259 136 433 173 111 23 373 26 482 5z m3886 -4 c327 -68 578 -218 729
-437 50 -72 60 -104 23 -72 -50 42 -216 116 -343 152 -259 73 -570 99 -851 71
-51 -5 -168 -35 -241 -61 -218 -79 -474 -247 -643 -424 -63 -66 -117 -90 -200
-90 -54 0 -69 4 -111 33 -34 22 -57 47 -73 80 -22 45 -23 53 -13 98 13 56 71
147 129 200 254 236 591 388 993 449 41 7 82 13 90 15 8 1 106 3 216 4 164 1
219 -3 295 -18z m-288 -1321 c37 -6 89 -13 115 -16 76 -8 249 -53 357 -91 128
-45 318 -134 308 -144 -32 -29 -259 -129 -363 -158 -25 -8 -56 -17 -70 -22
-36 -12 -158 -39 -205 -45 -22 -3 -58 -10 -80 -15 -65 -14 -420 -11 -528 5
-96 15 -123 21 -252 58 -157 44 -435 158 -435 178 0 12 209 106 315 143 279
96 615 139 838 107z"/>
<path d="M2570 6325 c0 -329 4 -605 10 -647 6 -40 12 -86 14 -103 17 -139 90
-306 172 -394 167 -181 508 -224 858 -109 322 105 541 329 622 636 33 125 56
251 84 470 30 226 16 505 -29 589 -16 30 -73 63 -110 63 -17 0 -78 -16 -136
-35 -110 -36 -199 -59 -275 -70 -25 -4 -67 -11 -94 -16 -64 -12 -401 -12 -463
0 -26 6 -86 17 -133 25 -47 9 -107 23 -135 31 -112 33 -293 94 -337 114 l-48
20 0 -574z"/>
<path d="M3907 3386 c-7 -18 10 -219 24 -276 6 -25 12 -52 14 -60 8 -41 51
-153 82 -218 125 -256 371 -475 678 -603 90 -37 240 -88 273 -92 17 -3 18 863
0 874 -6 4 -43 10 -82 14 -217 21 -426 86 -681 212 -139 69 -138 68 -231 126
-70 42 -70 42 -77 23z"/>
</g>
</svg>
